# xmcd
#
# Track frame offsets:
# 150
# 10934
# 15334
# 25931
# 30695
# 49193
# 61391
# 74417
# 81570
# 96459
# 125054
# 142524
# 162612
# 184929
# 203833
# 220246
# 237215
# 248827
# 263283
# 270305
# 284884
# 299480
#
# Disc length: 4113 seconds
#
#
# Revision: 2
# Processed by: cddbd v1.5.1PL0 Copyright (c) Steve Scherf et al.
# Submitted via: FreeRIP 2.80 
#
DISCID=4a100f16
DTITLE=DJ Big Mike - Get the money and run
DYEAR=2004
DGENRE=Rap
TTITLE0=u anit a killa
TTITLE1=hes a gangster
TTITLE2=respect
TTITLE3=its a suicide
TTITLE4=im so sorry
TTITLE5=yall cant fuck wit us
TTITLE6=where im from
TTITLE7=357
TTITLE8=its on
TTITLE9=victory 2004
TTITLE10=louch and dash
TTITLE11=we run this
TTITLE12=where i'm from
TTITLE13=thats my dude
TTITLE14=yall pussy
TTITLE15=hitmen
TTITLE16=there that go
TTITLE17=T.O.M.
TTITLE18=welcome to shady aftermath freestlye
TTITLE19=shoot sumthin
TTITLE20=what you say
TTITLE21=last days
EXTD=
EXTT0=
EXTT1=
EXTT2=
EXTT3=
EXTT4=
EXTT5=
EXTT6=
EXTT7=
EXTT8=
EXTT9=
EXTT10=
EXTT11=
EXTT12=
EXTT13=
EXTT14=
EXTT15=
EXTT16=
EXTT17=
EXTT18=
EXTT19=
EXTT20=
EXTT21=
PLAYORDER=
